<?xml version="1.0" standalone="no"?>
<!DOCTYPE svg PUBLIC "-//W3C//DTD SVG 20010904//EN"
 "http://www.w3.org/TR/2001/REC-SVG-20010904/DTD/svg10.dtd">
<svg version="1.0" xmlns="http://www.w3.org/2000/svg"
 width="267.000000pt" height="267.000000pt" viewBox="0 0 267.000000 267.000000"
 preserveAspectRatio="xMidYMid meet">
<metadata>
Created by potrace 1.14, written by Peter Selinger 2001-2017
</metadata>
<g transform="translate(0.000000,267.000000) scale(0.100000,-0.100000)"
fill="#000000" stroke="none">
<path d="M170 2519 c0 -4 -8 -10 -18 -14 -38 -12 -41 -42 -42 -433 l0 -379 31
-29 30 -29 490 0 c270 0 493 3 496 8 2 4 8 5 12 3 4 -3 19 7 32 22 l24 27 0
378 c1 347 -1 381 -17 408 -10 16 -28 33 -41 38 -28 11 -997 11 -997 0z m831
-259 c2 -106 -1 -393 -4 -396 -6 -6 -609 -5 -615 0 -3 3 -11 1 -18 -5 -24 -20
-29 17 -29 228 l0 212 30 3 c16 2 166 3 332 3 l303 0 1 -45z"/>
<path d="M1496 2513 c-51 -27 -53 -38 -51 -438 1 -390 2 -402 48 -427 16 -9
142 -13 507 -13 528 -1 527 -2 549 54 14 35 14 747 0 781 -22 56 -13 55 -540
56 -394 1 -491 -2 -513 -13z m829 -212 c7 -1 10 -80 10 -221 l1 -220 -31 -1
c-31 0 -587 0 -617 1 -17 0 -18 17 -18 218 0 120 2 221 4 223 3 3 613 3 651 0z"/>
<path d="M245 1412 c-95 -6 -126 -30 -130 -98 -2 -26 2 -58 7 -70 15 -33 64
-53 126 -50 30 1 56 -2 59 -6 2 -5 10 -5 16 -1 10 6 52 8 60 3 9 -6 37 -7 37
0 0 4 15 5 33 3 36 -5 32 -5 110 -1 32 2 61 0 63 -4 3 -5 11 -5 17 -1 10 6 52
8 60 3 9 -6 37 -7 37 0 0 4 15 5 33 3 36 -5 32 -5 110 -1 32 2 61 0 63 -4 3
-5 11 -5 17 -1 10 6 52 8 60 3 8 -6 37 -7 37 -1 0 4 19 6 43 5 54 -2 82 9 102
40 18 27 26 94 13 103 -5 2 -6 8 -3 12 9 16 -44 53 -80 56 -20 2 -39 6 -42 8
-2 3 -18 1 -34 -3 -16 -5 -29 -5 -29 0 0 8 -39 5 -67 -5 -7 -2 -13 0 -13 5 0
8 -38 5 -67 -5 -7 -2 -13 0 -13 5 0 8 -38 5 -67 -5 -7 -2 -13 0 -13 5 0 8 -38
5 -67 -5 -7 -2 -13 0 -13 5 0 8 -38 5 -67 -5 -7 -2 -13 0 -13 5 0 8 -38 5 -67
-5 -7 -2 -13 0 -13 5 0 8 -38 5 -67 -5 -7 -2 -13 0 -13 5 0 8 -38 5 -67 -5 -7
-2 -13 0 -13 5 0 8 -38 5 -67 -5 -7 -2 -13 -1 -13 4 0 4 -6 7 -12 7 -7 -1 -31
-2 -53 -4z"/>
<path d="M1512 1405 c-39 -17 -56 -33 -61 -60 -17 -93 21 -155 94 -151 17 1
35 -2 42 -7 6 -4 14 -3 18 3 5 8 11 8 20 0 10 -8 19 -8 34 0 14 7 27 7 39 1
13 -7 22 -7 29 0 8 8 13 7 17 0 5 -8 13 -8 26 -1 10 6 21 6 24 2 3 -5 25 -6
50 -2 24 4 52 3 60 -2 10 -5 24 -4 37 2 14 8 24 8 32 1 8 -6 18 -6 27 -1 9 5
19 5 27 -1 8 -7 18 -7 32 1 15 7 21 7 21 0 0 -7 6 -7 21 0 14 8 24 8 32 1 8
-6 18 -6 27 -1 9 5 19 5 27 -1 7 -6 17 -8 23 -4 16 10 60 13 65 5 2 -4 24 -4
49 0 24 4 52 3 60 -2 10 -6 16 -5 16 2 0 7 6 8 17 2 9 -5 29 -6 44 -2 15 5 30
6 32 4 3 -3 18 8 34 25 27 26 30 36 28 86 -1 42 -7 62 -23 77 -24 24 -110 41
-129 26 -7 -6 -13 -7 -13 -2 0 5 -23 9 -50 9 -28 1 -50 -3 -50 -8 0 -4 -5 -5
-11 -1 -17 10 -109 12 -109 2 0 -5 -5 -6 -11 -2 -17 10 -109 12 -109 2 0 -5
-5 -6 -11 -2 -17 10 -109 12 -109 2 0 -5 -5 -6 -11 -2 -17 10 -109 12 -109 2
0 -5 -5 -6 -11 -2 -17 10 -109 12 -109 2 0 -5 -5 -6 -11 -2 -18 11 -102 12
-123 1 -13 -6 -16 -6 -12 2 9 14 9 14 -32 -4z"/>
<path d="M165 986 c-55 -32 -54 -19 -54 -438 l0 -388 35 -27 34 -28 482 -1
c523 -1 524 0 551 54 18 36 18 755 0 788 -30 54 -22 53 -544 52 -345 0 -490
-3 -504 -12z m831 -219 c3 -3 6 -86 6 -184 -1 -283 2 -256 -27 -251 -14 3 -28
2 -30 -2 -3 -4 -21 -4 -40 0 -19 4 -37 5 -39 1 -2 -3 -48 -4 -101 -1 -53 3
-98 3 -100 0 -2 -3 -47 -3 -100 0 -53 3 -99 2 -101 -1 -2 -4 -20 -3 -39 1 -19
4 -37 4 -40 0 -2 -4 -15 -5 -28 -3 l-23 4 2 217 c1 119 2 219 3 222 2 7 650 5
657 -3z"/>
<path d="M1504 990 c-20 -8 -62 -50 -49 -50 4 0 3 -6 -2 -12 -6 -8 -9 -164 -9
-388 l1 -374 31 -31 30 -30 495 0 c304 0 500 4 510 10 47 29 48 36 46 445 -2
385 -2 385 -24 408 -13 12 -25 22 -28 22 -3 0 -6 1 -7 2 -10 5 -978 3 -994 -2z
m823 -224 c5 -4 8 -102 8 -218 1 -168 -2 -211 -13 -215 -22 -9 -452 -9 -452 0
0 5 -5 5 -10 2 -9 -6 -104 -9 -167 -6 l-23 1 0 219 0 220 33 3 c67 6 617 1
624 -6z"/>
</g>
</svg>
